<svg width="200" height="200" viewBox="0 0 200 200" xmlns="http://www.w3.org/2000/svg">
    <!-- Background Hexagon -->
    <polygon points="100,10 170,55 170,145 100,190 30,145 30,55" fill="purple" stroke="black" stroke-width="5" />

    <!-- Centered Diamond Shape -->
    <polygon points="100,50 130,100 100,150 70,100" fill="gold" stroke="darkgoldenrod" stroke-width="3" />

    <!-- Inner Diamond Lines -->
    <line x1="100" y1="50" x2="100" y2="150" stroke="darkgoldenrod" stroke-width="2" />
    <line x1="70" y1="100" x2="130" y2="100" stroke="darkgoldenrod" stroke-width="2" />

    <!-- Decorative Stars -->
    <polygon points="100,5 105,20 120,20 108,30 112,45 100,35 88,45 92,30 80,20 95,20" fill="#fff" />
    <polygon points="175,55 180,70 195,70 183,80 187,95 175,85 163,95 167,80 155,70 170,70" fill="#fff" />
    <polygon points="100,195 105,180 120,180 108,170 112,155 100,165 88,155 92,170 80,180 95,180" fill="#fff" />
    <polygon points="25,55 30,70 45,70 33,80 37,95 25,85 13,95 17,80 5,70 20,70" fill="#fff" />
</svg>
